<?xml version="1.0" standalone="no"?>
<!DOCTYPE svg PUBLIC "-//W3C//DTD SVG 20010904//EN"
 "http://www.w3.org/TR/2001/REC-SVG-20010904/DTD/svg10.dtd">
<svg version="1.0" xmlns="http://www.w3.org/2000/svg"
 width="5000.000000pt" height="5000.000000pt" viewBox="0 0 5000.000000 5000.000000"
 preserveAspectRatio="xMidYMid meet">

<g transform="translate(0.000000,5000.000000) scale(0.100000,-0.100000)"
fill="#000000" stroke="none">
<path d="M24275 39809 c-2588 -111 -4906 -809 -6998 -2106 -151 -94 -657 -427
-697 -460 -8 -6 -96 -70 -195 -142 -1008 -730 -2027 -1684 -2886 -2701 -132
-156 -417 -513 -516 -646 -174 -235 -227 -307 -353 -489 -207 -299 -477 -721
-593 -927 -52 -92 -71 -127 -128 -225 -113 -196 -378 -711 -474 -923 -152
-333 -206 -460 -300 -696 -548 -1372 -866 -2778 -980 -4324 -83 -1132 -44
-2322 111 -3435 204 -1468 647 -2914 1276 -4170 60 -118 60 -120 52 -176 l-9
-57 -825 -817 c-454 -449 -827 -822 -829 -827 -4 -12 1998 -2018 2014 -2018 5
0 2933 2923 6505 6495 l6495 6495 6527 -6521 6528 -6520 1035 1028 c569 565
1035 1033 1035 1038 0 11 -1270 1281 -1510 1509 -85 81 -162 161 -172 176 -21
35 -17 48 57 205 850 1805 1290 3615 1385 5700 13 284 13 1126 0 1410 -84
1855 -450 3512 -1125 5100 -151 353 -375 817 -547 1132 -124 229 -134 246
-155 283 -118 205 -181 312 -204 347 -16 23 -29 44 -29 48 0 3 -8 18 -18 33
-42 61 -132 202 -132 206 0 3 -285 431 -327 491 -8 11 -49 68 -91 127 -42 59
-101 142 -131 184 -30 42 -59 81 -66 87 -6 7 -38 48 -70 92 -66 89 -297 379
-418 525 -43 52 -84 102 -91 110 -171 209 -545 618 -846 923 -502 510 -982
942 -1498 1351 -143 113 -549 416 -672 501 -47 33 -87 62 -90 65 -12 13 -538
355 -685 445 -905 556 -1872 1005 -2880 1341 -1301 433 -2645 672 -4120 734
-272 11 -1089 11 -1360 -1z m1255 -2929 c1036 -46 1972 -196 2895 -465 920
-267 1831 -667 2625 -1152 85 -52 164 -100 175 -106 98 -59 456 -300 603 -406
267 -191 664 -503 812 -637 14 -12 50 -44 81 -71 528 -451 1239 -1189 1642
-1703 7 -8 28 -35 47 -60 19 -25 37 -47 40 -50 9 -8 208 -273 248 -329 9 -13
26 -35 37 -50 12 -14 28 -37 37 -51 10 -14 33 -47 53 -75 66 -93 321 -479 379
-575 31 -52 61 -102 66 -110 339 -560 648 -1202 880 -1825 405 -1089 622
-2134 712 -3435 18 -250 18 -1377 0 -1630 -63 -919 -172 -1651 -357 -2400 -79
-318 -221 -805 -270 -920 -12 -30 -35 -88 -50 -128 -15 -40 -31 -72 -35 -70
-5 2 -490 482 -1079 1067 l-1071 1063 0 2394 0 2394 -1430 0 -1430 0 -2 -960
-3 -960 -1675 1677 c-921 923 -2299 2303 -3061 3066 l-1386 1389 -2304 -2298
c-3531 -3522 -6022 -6007 -7469 -7451 -1254 -1252 -1317 -1313 -1351 -1313
-68 0 -82 29 -228 472 -319 972 -501 1913 -578 2998 -22 307 -25 1259 -5 1555
107 1606 419 2870 1042 4230 144 315 508 985 631 1162 16 23 29 44 29 48 0 4
13 25 29 48 16 23 71 107 124 187 52 80 134 199 181 265 47 66 91 128 98 139
14 20 62 85 77 102 5 6 26 35 47 65 40 55 51 69 94 123 14 17 39 49 55 71 16
22 34 45 40 51 5 6 21 26 35 44 14 18 30 38 35 44 6 6 36 43 67 82 31 39 63
78 71 86 8 8 39 43 68 78 29 36 60 72 69 80 8 9 40 45 70 80 30 35 78 89 106
119 28 31 80 88 115 126 274 300 748 768 1054 1041 970 863 2046 1546 3180
2019 1259 525 2625 814 4095 868 204 8 841 6 1040 -3z"/>
<path d="M22170 20500 l0 -1180 1160 0 1160 0 0 1180 0 1180 -1160 0 -1160 0
0 -1180z"/>
<path d="M25500 20500 l0 -1180 1165 0 1165 0 0 1180 0 1180 -1165 0 -1165 0
0 -1180z"/>
<path d="M22170 17120 l0 -1180 1160 0 1160 0 0 1180 0 1180 -1160 0 -1160 0
0 -1180z"/>
<path d="M25500 17120 l0 -1180 1165 0 1165 0 0 1180 0 1180 -1165 0 -1165 0
0 -1180z"/>
<path d="M15201 15976 l-1034 -1034 31 -39 c59 -74 666 -659 982 -948 1225
-1115 2589 -2004 4024 -2622 1422 -613 2953 -984 4571 -1107 405 -32 551 -37
1080 -43 776 -8 1307 17 1995 93 2336 259 4492 1049 6410 2348 589 399 1131
824 1686 1322 234 210 601 560 656 626 24 28 63 74 88 102 82 93 122 145 118
154 -5 15 -2019 2082 -2028 2082 -5 0 -109 -100 -232 -221 -800 -794 -1661
-1483 -2425 -1942 -651 -391 -1415 -740 -2183 -997 -975 -326 -1962 -513
-3130 -592 -252 -17 -1273 -17 -1530 0 -861 57 -1534 161 -2285 352 -781 198
-1455 447 -2180 805 -630 311 -1169 643 -1770 1090 -549 409 -951 758 -1461
1272 -182 183 -335 333 -340 333 -5 0 -474 -465 -1043 -1034z"/>
</g>
</svg>
